<mxfile host="app.diagrams.net" modified="2022-06-19T09:53:27.710Z" agent="5.0 (Macintosh; Intel Mac OS X 10_15_7) AppleWebKit/537.36 (KHTML, like Gecko) Chrome/102.0.0.0 Safari/537.36" etag="-uXvmBKJ9qdnFeHFUT25" version="20.0.1" type="github">
  <diagram id="mySKXc3E1J6A7tmG4pEC" name="Page-1">
    <mxGraphModel dx="2216" dy="773" grid="1" gridSize="10" guides="1" tooltips="1" connect="1" arrows="1" fold="1" page="1" pageScale="1" pageWidth="827" pageHeight="1169" background="#DAD2D8" math="0" shadow="0">
      <root>
        <mxCell id="0" />
        <mxCell id="1" parent="0" />
        <mxCell id="4PpVHU8LoZDL8oL6UYyr-60" style="edgeStyle=orthogonalEdgeStyle;curved=0;rounded=1;sketch=0;orthogonalLoop=1;jettySize=auto;html=1;exitX=0.5;exitY=1;exitDx=0;exitDy=0;entryX=0.5;entryY=0;entryDx=0;entryDy=0;fontColor=#143642;strokeColor=#A8201A;fillColor=#FAE5C7;" parent="1" source="4PpVHU8LoZDL8oL6UYyr-21" target="4PpVHU8LoZDL8oL6UYyr-23" edge="1">
          <mxGeometry relative="1" as="geometry">
            <Array as="points">
              <mxPoint x="290" y="260" />
              <mxPoint x="23" y="260" />
            </Array>
          </mxGeometry>
        </mxCell>
        <mxCell id="4PpVHU8LoZDL8oL6UYyr-21" value="Home Page" style="rounded=1;whiteSpace=wrap;html=1;fillColor=#FAE5C7;strokeColor=#0F8B8D;fontColor=#143642;" parent="1" vertex="1">
          <mxGeometry x="230" y="170" width="120" height="60" as="geometry" />
        </mxCell>
        <mxCell id="4PpVHU8LoZDL8oL6UYyr-30" style="edgeStyle=orthogonalEdgeStyle;curved=0;rounded=1;sketch=0;orthogonalLoop=1;jettySize=auto;html=1;exitX=0.5;exitY=1;exitDx=0;exitDy=0;entryX=0.5;entryY=0;entryDx=0;entryDy=0;fontColor=#143642;strokeColor=#A8201A;fillColor=#FAE5C7;" parent="1" source="4PpVHU8LoZDL8oL6UYyr-23" target="4PpVHU8LoZDL8oL6UYyr-27" edge="1">
          <mxGeometry relative="1" as="geometry" />
        </mxCell>
        <mxCell id="4PpVHU8LoZDL8oL6UYyr-23" value="User" style="rounded=0;whiteSpace=wrap;html=1;sketch=0;fontColor=#143642;strokeColor=#0F8B8D;fillColor=#FAE5C7;" parent="1" vertex="1">
          <mxGeometry x="-37.18000000000001" y="298" width="120" height="60" as="geometry" />
        </mxCell>
        <mxCell id="4PpVHU8LoZDL8oL6UYyr-33" style="edgeStyle=orthogonalEdgeStyle;curved=0;rounded=1;sketch=0;orthogonalLoop=1;jettySize=auto;html=1;fontColor=#143642;strokeColor=#A8201A;fillColor=#FAE5C7;" parent="1" source="4PpVHU8LoZDL8oL6UYyr-24" target="4PpVHU8LoZDL8oL6UYyr-32" edge="1">
          <mxGeometry relative="1" as="geometry" />
        </mxCell>
        <mxCell id="4PpVHU8LoZDL8oL6UYyr-24" value="Admin" style="rounded=0;whiteSpace=wrap;html=1;sketch=0;fontColor=#143642;strokeColor=#0F8B8D;fillColor=#FAE5C7;" parent="1" vertex="1">
          <mxGeometry x="523.12" y="290" width="120" height="60" as="geometry" />
        </mxCell>
        <mxCell id="4PpVHU8LoZDL8oL6UYyr-29" style="edgeStyle=orthogonalEdgeStyle;curved=0;rounded=1;sketch=0;orthogonalLoop=1;jettySize=auto;html=1;exitX=1;exitY=0.5;exitDx=0;exitDy=0;fontColor=#143642;strokeColor=#A8201A;fillColor=#FAE5C7;" parent="1" source="4PpVHU8LoZDL8oL6UYyr-27" target="4PpVHU8LoZDL8oL6UYyr-28" edge="1">
          <mxGeometry relative="1" as="geometry" />
        </mxCell>
        <mxCell id="4PpVHU8LoZDL8oL6UYyr-108" style="edgeStyle=orthogonalEdgeStyle;curved=0;rounded=1;sketch=0;orthogonalLoop=1;jettySize=auto;html=1;entryX=0.5;entryY=0;entryDx=0;entryDy=0;fontColor=#143642;strokeColor=#A8201A;fillColor=#FAE5C7;" parent="1" source="4PpVHU8LoZDL8oL6UYyr-27" target="4PpVHU8LoZDL8oL6UYyr-38" edge="1">
          <mxGeometry relative="1" as="geometry" />
        </mxCell>
        <mxCell id="4PpVHU8LoZDL8oL6UYyr-27" value="Login" style="rhombus;whiteSpace=wrap;html=1;rounded=0;sketch=0;fontColor=#143642;strokeColor=#0F8B8D;fillColor=#FAE5C7;" parent="1" vertex="1">
          <mxGeometry x="-17.180000000000007" y="428" width="80" height="80" as="geometry" />
        </mxCell>
        <mxCell id="4PpVHU8LoZDL8oL6UYyr-31" style="edgeStyle=orthogonalEdgeStyle;curved=0;rounded=1;sketch=0;orthogonalLoop=1;jettySize=auto;html=1;fontColor=#143642;strokeColor=#A8201A;fillColor=#FAE5C7;" parent="1" source="4PpVHU8LoZDL8oL6UYyr-28" edge="1">
          <mxGeometry relative="1" as="geometry">
            <mxPoint x="22.819999999999993" y="388" as="targetPoint" />
            <Array as="points">
              <mxPoint x="152.82" y="388" />
            </Array>
          </mxGeometry>
        </mxCell>
        <mxCell id="rfM77Tdvx1oLTNoh5SR2-5" style="edgeStyle=orthogonalEdgeStyle;shape=connector;curved=0;rounded=1;sketch=0;orthogonalLoop=1;jettySize=auto;html=1;exitX=0.5;exitY=1;exitDx=0;exitDy=0;labelBackgroundColor=default;fontFamily=Helvetica;fontSize=11;fontColor=#143642;endArrow=classic;strokeColor=#A8201A;fillColor=#FAE5C7;entryX=0.5;entryY=0;entryDx=0;entryDy=0;" edge="1" parent="1" source="4PpVHU8LoZDL8oL6UYyr-28" target="4PpVHU8LoZDL8oL6UYyr-58">
          <mxGeometry relative="1" as="geometry">
            <mxPoint x="60" y="530" as="targetPoint" />
            <Array as="points">
              <mxPoint x="153" y="530" />
              <mxPoint x="-3" y="530" />
            </Array>
          </mxGeometry>
        </mxCell>
        <mxCell id="4PpVHU8LoZDL8oL6UYyr-28" value="Register" style="rhombus;whiteSpace=wrap;html=1;rounded=0;sketch=0;fontColor=#143642;strokeColor=#0F8B8D;fillColor=#FAE5C7;" parent="1" vertex="1">
          <mxGeometry x="112.82" y="428" width="80" height="80" as="geometry" />
        </mxCell>
        <mxCell id="4PpVHU8LoZDL8oL6UYyr-45" style="edgeStyle=orthogonalEdgeStyle;curved=0;rounded=1;sketch=0;orthogonalLoop=1;jettySize=auto;html=1;fontColor=#143642;strokeColor=#A8201A;fillColor=#FAE5C7;entryX=0.5;entryY=0;entryDx=0;entryDy=0;" parent="1" source="4PpVHU8LoZDL8oL6UYyr-32" target="4PpVHU8LoZDL8oL6UYyr-47" edge="1">
          <mxGeometry relative="1" as="geometry">
            <mxPoint x="583.12" y="542" as="targetPoint" />
          </mxGeometry>
        </mxCell>
        <mxCell id="4PpVHU8LoZDL8oL6UYyr-32" value="Login" style="rhombus;whiteSpace=wrap;html=1;rounded=0;sketch=0;fontColor=#143642;strokeColor=#0F8B8D;fillColor=#FAE5C7;" parent="1" vertex="1">
          <mxGeometry x="543.12" y="420" width="80" height="80" as="geometry" />
        </mxCell>
        <mxCell id="4PpVHU8LoZDL8oL6UYyr-35" value="" style="endArrow=classic;html=1;rounded=1;sketch=0;fontColor=#143642;strokeColor=#A8201A;fillColor=#FAE5C7;curved=0;exitX=1;exitY=0.5;exitDx=0;exitDy=0;" parent="1" source="4PpVHU8LoZDL8oL6UYyr-32" edge="1">
          <mxGeometry width="50" height="50" relative="1" as="geometry">
            <mxPoint x="643.12" y="500" as="sourcePoint" />
            <mxPoint x="583.12" y="390" as="targetPoint" />
            <Array as="points">
              <mxPoint x="663.12" y="460" />
              <mxPoint x="663.12" y="390" />
            </Array>
          </mxGeometry>
        </mxCell>
        <mxCell id="4PpVHU8LoZDL8oL6UYyr-36" value="No" style="text;html=1;align=center;verticalAlign=middle;resizable=0;points=[];autosize=1;strokeColor=none;fillColor=none;fontColor=#143642;" parent="1" vertex="1">
          <mxGeometry x="608.12" y="400" width="30" height="20" as="geometry" />
        </mxCell>
        <mxCell id="4PpVHU8LoZDL8oL6UYyr-37" value="No" style="text;html=1;align=center;verticalAlign=middle;resizable=0;points=[];autosize=1;strokeColor=none;fillColor=none;fontColor=#143642;" parent="1" vertex="1">
          <mxGeometry x="70" y="450" width="30" height="20" as="geometry" />
        </mxCell>
        <mxCell id="rfM77Tdvx1oLTNoh5SR2-14" value="" style="edgeStyle=orthogonalEdgeStyle;shape=connector;curved=0;rounded=1;sketch=0;orthogonalLoop=1;jettySize=auto;html=1;labelBackgroundColor=default;fontFamily=Helvetica;fontSize=11;fontColor=#143642;endArrow=classic;strokeColor=#A8201A;fillColor=#FAE5C7;" edge="1" parent="1" source="4PpVHU8LoZDL8oL6UYyr-38">
          <mxGeometry relative="1" as="geometry">
            <mxPoint x="-250" y="651.9949999999999" as="targetPoint" />
            <Array as="points">
              <mxPoint x="-250" y="772" />
            </Array>
          </mxGeometry>
        </mxCell>
        <mxCell id="rfM77Tdvx1oLTNoh5SR2-25" style="edgeStyle=orthogonalEdgeStyle;shape=connector;curved=0;rounded=1;sketch=0;orthogonalLoop=1;jettySize=auto;html=1;entryX=0;entryY=0.5;entryDx=0;entryDy=0;labelBackgroundColor=default;fontFamily=Helvetica;fontSize=12;fontColor=#143642;endArrow=classic;strokeColor=#A8201A;fillColor=#FAE5C7;" edge="1" parent="1" source="4PpVHU8LoZDL8oL6UYyr-38" target="4PpVHU8LoZDL8oL6UYyr-58">
          <mxGeometry relative="1" as="geometry">
            <Array as="points">
              <mxPoint x="-86" y="768" />
              <mxPoint x="-86" y="692" />
            </Array>
          </mxGeometry>
        </mxCell>
        <mxCell id="rfM77Tdvx1oLTNoh5SR2-50" style="edgeStyle=orthogonalEdgeStyle;shape=connector;curved=0;rounded=1;sketch=0;orthogonalLoop=1;jettySize=auto;html=1;entryX=0;entryY=0.5;entryDx=0;entryDy=0;labelBackgroundColor=default;fontFamily=Helvetica;fontSize=12;fontColor=#143642;endArrow=classic;strokeColor=#A8201A;fillColor=#FAE5C7;" edge="1" parent="1" source="4PpVHU8LoZDL8oL6UYyr-38" target="4PpVHU8LoZDL8oL6UYyr-59">
          <mxGeometry relative="1" as="geometry">
            <Array as="points">
              <mxPoint x="-85" y="768" />
              <mxPoint x="-85" y="895" />
            </Array>
          </mxGeometry>
        </mxCell>
        <mxCell id="rfM77Tdvx1oLTNoh5SR2-51" style="edgeStyle=orthogonalEdgeStyle;shape=connector;curved=0;rounded=1;sketch=0;orthogonalLoop=1;jettySize=auto;html=1;entryX=0;entryY=0.5;entryDx=0;entryDy=0;labelBackgroundColor=default;fontFamily=Helvetica;fontSize=12;fontColor=#143642;endArrow=classic;strokeColor=#A8201A;fillColor=#FAE5C7;" edge="1" parent="1" source="4PpVHU8LoZDL8oL6UYyr-38" target="4PpVHU8LoZDL8oL6UYyr-57">
          <mxGeometry relative="1" as="geometry">
            <Array as="points">
              <mxPoint x="-86" y="768" />
              <mxPoint x="-86" y="1088" />
            </Array>
          </mxGeometry>
        </mxCell>
        <mxCell id="rfM77Tdvx1oLTNoh5SR2-63" style="edgeStyle=orthogonalEdgeStyle;shape=connector;curved=0;rounded=1;sketch=0;orthogonalLoop=1;jettySize=auto;html=1;entryX=0;entryY=0.5;entryDx=0;entryDy=0;labelBackgroundColor=default;fontFamily=Helvetica;fontSize=12;fontColor=#143642;endArrow=classic;strokeColor=#A8201A;fillColor=#FAE5C7;" edge="1" parent="1" source="4PpVHU8LoZDL8oL6UYyr-38" target="rfM77Tdvx1oLTNoh5SR2-52">
          <mxGeometry relative="1" as="geometry">
            <Array as="points">
              <mxPoint x="-86" y="768" />
              <mxPoint x="-86" y="1234" />
            </Array>
          </mxGeometry>
        </mxCell>
        <mxCell id="4PpVHU8LoZDL8oL6UYyr-38" value="User Home Screen" style="rounded=1;whiteSpace=wrap;html=1;sketch=0;fontColor=#143642;strokeColor=#0F8B8D;fillColor=#FAE5C7;" parent="1" vertex="1">
          <mxGeometry x="-220" y="744" width="126.25" height="48" as="geometry" />
        </mxCell>
        <mxCell id="4PpVHU8LoZDL8oL6UYyr-50" style="edgeStyle=orthogonalEdgeStyle;curved=0;rounded=1;sketch=0;orthogonalLoop=1;jettySize=auto;html=1;fontColor=#143642;strokeColor=#A8201A;fillColor=#FAE5C7;entryX=0.5;entryY=0;entryDx=0;entryDy=0;" parent="1" source="4PpVHU8LoZDL8oL6UYyr-47" edge="1" target="rfM77Tdvx1oLTNoh5SR2-21">
          <mxGeometry relative="1" as="geometry">
            <mxPoint x="583.12" y="842" as="targetPoint" />
            <Array as="points" />
          </mxGeometry>
        </mxCell>
        <mxCell id="4PpVHU8LoZDL8oL6UYyr-47" value="Admin Home Screen" style="rounded=1;whiteSpace=wrap;html=1;sketch=0;fontColor=#143642;strokeColor=#0F8B8D;fillColor=#FAE5C7;" parent="1" vertex="1">
          <mxGeometry x="520" y="554" width="126.25" height="48" as="geometry" />
        </mxCell>
        <mxCell id="4PpVHU8LoZDL8oL6UYyr-48" value="Yes" style="text;html=1;align=center;verticalAlign=middle;resizable=0;points=[];autosize=1;strokeColor=none;fillColor=none;fontColor=#143642;" parent="1" vertex="1">
          <mxGeometry x="583.12" y="512" width="40" height="20" as="geometry" />
        </mxCell>
        <mxCell id="4PpVHU8LoZDL8oL6UYyr-49" value="Yes" style="text;html=1;align=center;verticalAlign=middle;resizable=0;points=[];autosize=1;strokeColor=none;fillColor=none;fontColor=#143642;" parent="1" vertex="1">
          <mxGeometry x="-80" y="450" width="40" height="20" as="geometry" />
        </mxCell>
        <mxCell id="4PpVHU8LoZDL8oL6UYyr-51" value="Update Car Spaces Informaion" style="rounded=1;whiteSpace=wrap;html=1;sketch=0;fontColor=#143642;strokeColor=#0F8B8D;fillColor=#FAE5C7;" parent="1" vertex="1">
          <mxGeometry x="646.25" y="752" width="126.25" height="48" as="geometry" />
        </mxCell>
        <mxCell id="4PpVHU8LoZDL8oL6UYyr-52" value="Delect Car Spaces" style="rounded=1;whiteSpace=wrap;html=1;sketch=0;fontColor=#143642;strokeColor=#0F8B8D;fillColor=#FAE5C7;" parent="1" vertex="1">
          <mxGeometry x="646.25" y="692" width="126.25" height="48" as="geometry" />
        </mxCell>
        <mxCell id="4PpVHU8LoZDL8oL6UYyr-53" value="Check Registed Car Spaces" style="rounded=1;whiteSpace=wrap;html=1;sketch=0;fontColor=#143642;strokeColor=#0F8B8D;fillColor=#FAE5C7;" parent="1" vertex="1">
          <mxGeometry x="646.25" y="632" width="126.25" height="48" as="geometry" />
        </mxCell>
        <mxCell id="4PpVHU8LoZDL8oL6UYyr-54" value="" style="endArrow=classic;html=1;rounded=1;sketch=0;fontColor=#143642;strokeColor=#A8201A;fillColor=#FAE5C7;curved=0;entryX=0;entryY=0.5;entryDx=0;entryDy=0;" parent="1" target="4PpVHU8LoZDL8oL6UYyr-53" edge="1">
          <mxGeometry width="50" height="50" relative="1" as="geometry">
            <mxPoint x="583.12" y="656" as="sourcePoint" />
            <mxPoint x="543.12" y="692" as="targetPoint" />
          </mxGeometry>
        </mxCell>
        <mxCell id="4PpVHU8LoZDL8oL6UYyr-55" value="" style="endArrow=classic;html=1;rounded=1;sketch=0;fontColor=#143642;strokeColor=#A8201A;fillColor=#FAE5C7;curved=0;entryX=0;entryY=0.5;entryDx=0;entryDy=0;" parent="1" target="4PpVHU8LoZDL8oL6UYyr-52" edge="1">
          <mxGeometry width="50" height="50" relative="1" as="geometry">
            <mxPoint x="583.12" y="715.5" as="sourcePoint" />
            <mxPoint x="653.12" y="716" as="targetPoint" />
          </mxGeometry>
        </mxCell>
        <mxCell id="4PpVHU8LoZDL8oL6UYyr-56" value="" style="endArrow=classic;html=1;rounded=1;sketch=0;fontColor=#143642;strokeColor=#A8201A;fillColor=#FAE5C7;curved=0;entryX=0;entryY=0.5;entryDx=0;entryDy=0;" parent="1" target="4PpVHU8LoZDL8oL6UYyr-51" edge="1">
          <mxGeometry width="50" height="50" relative="1" as="geometry">
            <mxPoint x="583.12" y="776" as="sourcePoint" />
            <mxPoint x="646.2500000000001" y="792" as="targetPoint" />
          </mxGeometry>
        </mxCell>
        <mxCell id="4PpVHU8LoZDL8oL6UYyr-84" style="edgeStyle=orthogonalEdgeStyle;curved=0;rounded=1;sketch=0;orthogonalLoop=1;jettySize=auto;html=1;exitX=1;exitY=0.5;exitDx=0;exitDy=0;entryX=0;entryY=0.5;entryDx=0;entryDy=0;fontColor=#143642;strokeColor=#A8201A;fillColor=#FAE5C7;" parent="1" source="4PpVHU8LoZDL8oL6UYyr-57" target="4PpVHU8LoZDL8oL6UYyr-70" edge="1">
          <mxGeometry relative="1" as="geometry" />
        </mxCell>
        <mxCell id="rfM77Tdvx1oLTNoh5SR2-38" style="edgeStyle=orthogonalEdgeStyle;shape=connector;curved=0;rounded=1;sketch=0;orthogonalLoop=1;jettySize=auto;html=1;entryX=0;entryY=0.5;entryDx=0;entryDy=0;labelBackgroundColor=default;fontFamily=Helvetica;fontSize=12;fontColor=#143642;endArrow=classic;strokeColor=#A8201A;fillColor=#FAE5C7;" edge="1" parent="1" source="4PpVHU8LoZDL8oL6UYyr-57" target="rfM77Tdvx1oLTNoh5SR2-37">
          <mxGeometry relative="1" as="geometry" />
        </mxCell>
        <mxCell id="rfM77Tdvx1oLTNoh5SR2-45" style="edgeStyle=orthogonalEdgeStyle;shape=connector;curved=0;rounded=1;sketch=0;orthogonalLoop=1;jettySize=auto;html=1;entryX=0;entryY=0.5;entryDx=0;entryDy=0;labelBackgroundColor=default;fontFamily=Helvetica;fontSize=12;fontColor=#143642;endArrow=classic;strokeColor=#A8201A;fillColor=#FAE5C7;" edge="1" parent="1" source="4PpVHU8LoZDL8oL6UYyr-57" target="4PpVHU8LoZDL8oL6UYyr-71">
          <mxGeometry relative="1" as="geometry" />
        </mxCell>
        <mxCell id="rfM77Tdvx1oLTNoh5SR2-46" style="edgeStyle=orthogonalEdgeStyle;shape=connector;curved=0;rounded=1;sketch=0;orthogonalLoop=1;jettySize=auto;html=1;entryX=0;entryY=0.5;entryDx=0;entryDy=0;labelBackgroundColor=default;fontFamily=Helvetica;fontSize=12;fontColor=#143642;endArrow=classic;strokeColor=#A8201A;fillColor=#FAE5C7;" edge="1" parent="1" source="4PpVHU8LoZDL8oL6UYyr-57" target="4PpVHU8LoZDL8oL6UYyr-72">
          <mxGeometry relative="1" as="geometry" />
        </mxCell>
        <mxCell id="4PpVHU8LoZDL8oL6UYyr-57" value="User Profile Page" style="rounded=1;whiteSpace=wrap;html=1;sketch=0;fontColor=#143642;strokeColor=#0F8B8D;fillColor=#FAE5C7;" parent="1" vertex="1">
          <mxGeometry x="-65.77" y="1064" width="127.18" height="48" as="geometry" />
        </mxCell>
        <mxCell id="4PpVHU8LoZDL8oL6UYyr-111" style="edgeStyle=orthogonalEdgeStyle;curved=0;rounded=1;sketch=0;orthogonalLoop=1;jettySize=auto;html=1;entryX=0;entryY=0.5;entryDx=0;entryDy=0;fontColor=#143642;strokeColor=#A8201A;fillColor=#FAE5C7;" parent="1" source="4PpVHU8LoZDL8oL6UYyr-58" target="4PpVHU8LoZDL8oL6UYyr-66" edge="1">
          <mxGeometry relative="1" as="geometry" />
        </mxCell>
        <mxCell id="4PpVHU8LoZDL8oL6UYyr-112" style="edgeStyle=orthogonalEdgeStyle;curved=0;rounded=1;sketch=0;orthogonalLoop=1;jettySize=auto;html=1;entryX=0;entryY=0.5;entryDx=0;entryDy=0;fontColor=#143642;strokeColor=#A8201A;fillColor=#FAE5C7;" parent="1" source="4PpVHU8LoZDL8oL6UYyr-58" target="4PpVHU8LoZDL8oL6UYyr-68" edge="1">
          <mxGeometry relative="1" as="geometry" />
        </mxCell>
        <mxCell id="4PpVHU8LoZDL8oL6UYyr-113" style="edgeStyle=orthogonalEdgeStyle;curved=0;rounded=1;sketch=0;orthogonalLoop=1;jettySize=auto;html=1;entryX=0;entryY=0.5;entryDx=0;entryDy=0;fontColor=#143642;strokeColor=#A8201A;fillColor=#FAE5C7;" parent="1" source="4PpVHU8LoZDL8oL6UYyr-58" target="4PpVHU8LoZDL8oL6UYyr-90" edge="1">
          <mxGeometry relative="1" as="geometry" />
        </mxCell>
        <mxCell id="4PpVHU8LoZDL8oL6UYyr-117" style="edgeStyle=orthogonalEdgeStyle;curved=0;rounded=1;sketch=0;orthogonalLoop=1;jettySize=auto;html=1;entryX=0;entryY=0.5;entryDx=0;entryDy=0;fontColor=#143642;strokeColor=#A8201A;fillColor=#FAE5C7;" parent="1" source="4PpVHU8LoZDL8oL6UYyr-58" target="4PpVHU8LoZDL8oL6UYyr-95" edge="1">
          <mxGeometry relative="1" as="geometry" />
        </mxCell>
        <mxCell id="4PpVHU8LoZDL8oL6UYyr-58" value="Explore" style="rounded=1;whiteSpace=wrap;html=1;sketch=0;fontColor=#143642;strokeColor=#0F8B8D;fillColor=#FAE5C7;" parent="1" vertex="1">
          <mxGeometry x="-65.77000000000001" y="667.5" width="126.25" height="48" as="geometry" />
        </mxCell>
        <mxCell id="4PpVHU8LoZDL8oL6UYyr-61" style="edgeStyle=orthogonalEdgeStyle;curved=0;rounded=1;sketch=0;orthogonalLoop=1;jettySize=auto;html=1;exitX=0.5;exitY=1;exitDx=0;exitDy=0;entryX=0.5;entryY=0;entryDx=0;entryDy=0;fontColor=#143642;strokeColor=#A8201A;fillColor=#FAE5C7;" parent="1" source="4PpVHU8LoZDL8oL6UYyr-21" target="4PpVHU8LoZDL8oL6UYyr-24" edge="1">
          <mxGeometry relative="1" as="geometry">
            <mxPoint x="290" y="240" as="sourcePoint" />
            <mxPoint x="89.38000000000011" y="308" as="targetPoint" />
            <Array as="points">
              <mxPoint x="290" y="230" />
              <mxPoint x="290" y="260" />
              <mxPoint x="510" y="260" />
            </Array>
          </mxGeometry>
        </mxCell>
        <mxCell id="4PpVHU8LoZDL8oL6UYyr-86" style="edgeStyle=orthogonalEdgeStyle;curved=0;rounded=1;sketch=0;orthogonalLoop=1;jettySize=auto;html=1;entryX=0;entryY=0.5;entryDx=0;entryDy=0;fontColor=#143642;strokeColor=#A8201A;fillColor=#FAE5C7;" parent="1" source="4PpVHU8LoZDL8oL6UYyr-59" target="4PpVHU8LoZDL8oL6UYyr-69" edge="1">
          <mxGeometry relative="1" as="geometry" />
        </mxCell>
        <mxCell id="4PpVHU8LoZDL8oL6UYyr-87" style="edgeStyle=orthogonalEdgeStyle;curved=0;rounded=1;sketch=0;orthogonalLoop=1;jettySize=auto;html=1;entryX=0;entryY=0.5;entryDx=0;entryDy=0;fontColor=#143642;strokeColor=#A8201A;fillColor=#FAE5C7;" parent="1" source="4PpVHU8LoZDL8oL6UYyr-59" target="4PpVHU8LoZDL8oL6UYyr-67" edge="1">
          <mxGeometry relative="1" as="geometry" />
        </mxCell>
        <mxCell id="rfM77Tdvx1oLTNoh5SR2-43" style="edgeStyle=orthogonalEdgeStyle;shape=connector;curved=0;rounded=1;sketch=0;orthogonalLoop=1;jettySize=auto;html=1;entryX=0;entryY=0.5;entryDx=0;entryDy=0;labelBackgroundColor=default;fontFamily=Helvetica;fontSize=12;fontColor=#143642;endArrow=classic;strokeColor=#A8201A;fillColor=#FAE5C7;" edge="1" parent="1" source="4PpVHU8LoZDL8oL6UYyr-59" target="rfM77Tdvx1oLTNoh5SR2-42">
          <mxGeometry relative="1" as="geometry" />
        </mxCell>
        <mxCell id="rfM77Tdvx1oLTNoh5SR2-44" style="edgeStyle=orthogonalEdgeStyle;shape=connector;curved=0;rounded=1;sketch=0;orthogonalLoop=1;jettySize=auto;html=1;entryX=0;entryY=0.5;entryDx=0;entryDy=0;labelBackgroundColor=default;fontFamily=Helvetica;fontSize=12;fontColor=#143642;endArrow=classic;strokeColor=#A8201A;fillColor=#FAE5C7;" edge="1" parent="1" source="4PpVHU8LoZDL8oL6UYyr-59" target="rfM77Tdvx1oLTNoh5SR2-41">
          <mxGeometry relative="1" as="geometry" />
        </mxCell>
        <mxCell id="4PpVHU8LoZDL8oL6UYyr-59" value="User Car Spaces Page" style="rounded=1;whiteSpace=wrap;html=1;sketch=0;fontColor=#143642;strokeColor=#0F8B8D;fillColor=#FAE5C7;" parent="1" vertex="1">
          <mxGeometry x="-64.83999999999999" y="871" width="126.25" height="48" as="geometry" />
        </mxCell>
        <mxCell id="4PpVHU8LoZDL8oL6UYyr-105" style="edgeStyle=orthogonalEdgeStyle;curved=0;rounded=1;sketch=0;orthogonalLoop=1;jettySize=auto;html=1;entryX=0.5;entryY=0;entryDx=0;entryDy=0;fontColor=#143642;strokeColor=#A8201A;fillColor=#FAE5C7;exitX=1;exitY=0.5;exitDx=0;exitDy=0;" parent="1" source="4PpVHU8LoZDL8oL6UYyr-66" target="4PpVHU8LoZDL8oL6UYyr-91" edge="1">
          <mxGeometry relative="1" as="geometry">
            <Array as="points">
              <mxPoint x="454" y="616" />
            </Array>
          </mxGeometry>
        </mxCell>
        <mxCell id="4PpVHU8LoZDL8oL6UYyr-66" value="Recommendation&amp;nbsp;" style="rounded=1;whiteSpace=wrap;html=1;sketch=0;fontColor=#143642;strokeColor=#0F8B8D;fillColor=#FAE5C7;" parent="1" vertex="1">
          <mxGeometry x="115.00000000000001" y="602" width="110" height="28" as="geometry" />
        </mxCell>
        <mxCell id="rfM77Tdvx1oLTNoh5SR2-103" style="edgeStyle=orthogonalEdgeStyle;shape=connector;curved=0;rounded=1;sketch=0;orthogonalLoop=1;jettySize=auto;html=1;entryX=0;entryY=0.5;entryDx=0;entryDy=0;labelBackgroundColor=default;fontFamily=Helvetica;fontSize=12;fontColor=#143642;endArrow=classic;strokeColor=#A8201A;fillColor=#FAE5C7;" edge="1" parent="1" source="4PpVHU8LoZDL8oL6UYyr-67" target="4PpVHU8LoZDL8oL6UYyr-73">
          <mxGeometry relative="1" as="geometry" />
        </mxCell>
        <mxCell id="4PpVHU8LoZDL8oL6UYyr-67" value="Update Information" style="rounded=1;whiteSpace=wrap;html=1;sketch=0;fontColor=#143642;strokeColor=#0F8B8D;fillColor=#FAE5C7;" parent="1" vertex="1">
          <mxGeometry x="122.72000000000001" y="925" width="80" height="30" as="geometry" />
        </mxCell>
        <mxCell id="rfM77Tdvx1oLTNoh5SR2-31" style="edgeStyle=orthogonalEdgeStyle;shape=connector;curved=0;rounded=1;sketch=0;orthogonalLoop=1;jettySize=auto;html=1;entryX=0;entryY=0.5;entryDx=0;entryDy=0;labelBackgroundColor=default;fontFamily=Helvetica;fontSize=12;fontColor=#143642;endArrow=classic;strokeColor=#A8201A;fillColor=#FAE5C7;" edge="1" parent="1" source="4PpVHU8LoZDL8oL6UYyr-68" target="4PpVHU8LoZDL8oL6UYyr-96">
          <mxGeometry relative="1" as="geometry" />
        </mxCell>
        <mxCell id="rfM77Tdvx1oLTNoh5SR2-32" style="edgeStyle=orthogonalEdgeStyle;shape=connector;curved=0;rounded=1;sketch=0;orthogonalLoop=1;jettySize=auto;html=1;entryX=0;entryY=0.5;entryDx=0;entryDy=0;labelBackgroundColor=default;fontFamily=Helvetica;fontSize=12;fontColor=#143642;endArrow=classic;strokeColor=#A8201A;fillColor=#FAE5C7;" edge="1" parent="1" source="4PpVHU8LoZDL8oL6UYyr-68" target="4PpVHU8LoZDL8oL6UYyr-98">
          <mxGeometry relative="1" as="geometry" />
        </mxCell>
        <mxCell id="rfM77Tdvx1oLTNoh5SR2-33" style="edgeStyle=orthogonalEdgeStyle;shape=connector;curved=0;rounded=1;sketch=0;orthogonalLoop=1;jettySize=auto;html=1;entryX=0;entryY=0.5;entryDx=0;entryDy=0;labelBackgroundColor=default;fontFamily=Helvetica;fontSize=12;fontColor=#143642;endArrow=classic;strokeColor=#A8201A;fillColor=#FAE5C7;" edge="1" parent="1" source="4PpVHU8LoZDL8oL6UYyr-68" target="rfM77Tdvx1oLTNoh5SR2-29">
          <mxGeometry relative="1" as="geometry" />
        </mxCell>
        <mxCell id="4PpVHU8LoZDL8oL6UYyr-68" value="Search Bar" style="rounded=1;whiteSpace=wrap;html=1;sketch=0;fontColor=#143642;strokeColor=#0F8B8D;fillColor=#FAE5C7;" parent="1" vertex="1">
          <mxGeometry x="116.41000000000001" y="676" width="80" height="30" as="geometry" />
        </mxCell>
        <mxCell id="rfM77Tdvx1oLTNoh5SR2-95" style="edgeStyle=orthogonalEdgeStyle;shape=connector;curved=0;rounded=1;sketch=0;orthogonalLoop=1;jettySize=auto;html=1;entryX=0;entryY=0.5;entryDx=0;entryDy=0;labelBackgroundColor=default;fontFamily=Helvetica;fontSize=12;fontColor=#143642;endArrow=classic;strokeColor=#A8201A;fillColor=#FAE5C7;" edge="1" parent="1" source="4PpVHU8LoZDL8oL6UYyr-69" target="4PpVHU8LoZDL8oL6UYyr-73">
          <mxGeometry relative="1" as="geometry" />
        </mxCell>
        <mxCell id="4PpVHU8LoZDL8oL6UYyr-69" value="Add New Car Space" style="rounded=1;whiteSpace=wrap;html=1;sketch=0;fontColor=#143642;strokeColor=#0F8B8D;fillColor=#FAE5C7;" parent="1" vertex="1">
          <mxGeometry x="121.31000000000002" y="880" width="80" height="30" as="geometry" />
        </mxCell>
        <mxCell id="rfM77Tdvx1oLTNoh5SR2-92" style="edgeStyle=orthogonalEdgeStyle;shape=connector;curved=0;rounded=1;sketch=0;orthogonalLoop=1;jettySize=auto;html=1;entryX=0;entryY=0.5;entryDx=0;entryDy=0;labelBackgroundColor=default;fontFamily=Helvetica;fontSize=12;fontColor=#143642;endArrow=classic;strokeColor=#A8201A;fillColor=#FAE5C7;" edge="1" parent="1" source="4PpVHU8LoZDL8oL6UYyr-70" target="4PpVHU8LoZDL8oL6UYyr-73">
          <mxGeometry relative="1" as="geometry" />
        </mxCell>
        <mxCell id="4PpVHU8LoZDL8oL6UYyr-70" value="Add Car/Personal information" style="rounded=1;whiteSpace=wrap;html=1;sketch=0;fontColor=#143642;strokeColor=#0F8B8D;fillColor=#FAE5C7;" parent="1" vertex="1">
          <mxGeometry x="117.72000000000001" y="970" width="90" height="50" as="geometry" />
        </mxCell>
        <mxCell id="4PpVHU8LoZDL8oL6UYyr-71" value="Booking History" style="rounded=1;whiteSpace=wrap;html=1;sketch=0;fontColor=#143642;strokeColor=#0F8B8D;fillColor=#FAE5C7;" parent="1" vertex="1">
          <mxGeometry x="119.99999999999999" y="1152" width="90" height="30" as="geometry" />
        </mxCell>
        <mxCell id="rfM77Tdvx1oLTNoh5SR2-98" style="edgeStyle=orthogonalEdgeStyle;shape=connector;curved=0;rounded=1;sketch=0;orthogonalLoop=1;jettySize=auto;html=1;entryX=0.5;entryY=1;entryDx=0;entryDy=0;labelBackgroundColor=default;fontFamily=Helvetica;fontSize=12;fontColor=#143642;endArrow=classic;strokeColor=#A8201A;fillColor=#FAE5C7;" edge="1" parent="1" source="4PpVHU8LoZDL8oL6UYyr-72" target="4PpVHU8LoZDL8oL6UYyr-73">
          <mxGeometry relative="1" as="geometry">
            <Array as="points">
              <mxPoint x="165" y="1030" />
              <mxPoint x="355" y="1030" />
            </Array>
          </mxGeometry>
        </mxCell>
        <mxCell id="4PpVHU8LoZDL8oL6UYyr-72" value="Bank Account" style="rounded=1;whiteSpace=wrap;html=1;sketch=0;fontColor=#143642;strokeColor=#0F8B8D;fillColor=#FAE5C7;" parent="1" vertex="1">
          <mxGeometry x="120" y="1046" width="90" height="30" as="geometry" />
        </mxCell>
        <mxCell id="4PpVHU8LoZDL8oL6UYyr-88" style="edgeStyle=orthogonalEdgeStyle;curved=0;rounded=1;sketch=0;orthogonalLoop=1;jettySize=auto;html=1;entryX=0.5;entryY=1;entryDx=0;entryDy=0;fontColor=#143642;strokeColor=#A8201A;fillColor=#FAE5C7;exitX=0.5;exitY=0;exitDx=0;exitDy=0;" parent="1" source="4PpVHU8LoZDL8oL6UYyr-73" target="4PpVHU8LoZDL8oL6UYyr-74" edge="1">
          <mxGeometry relative="1" as="geometry">
            <mxPoint x="335.00000000000017" y="970" as="sourcePoint" />
            <mxPoint x="335.00000000000017" y="907.5" as="targetPoint" />
          </mxGeometry>
        </mxCell>
        <mxCell id="4PpVHU8LoZDL8oL6UYyr-73" value="Authentication&amp;nbsp;" style="rhombus;whiteSpace=wrap;html=1;rounded=0;sketch=0;fontColor=#143642;strokeColor=#0F8B8D;fillColor=#FAE5C7;" parent="1" vertex="1">
          <mxGeometry x="310" y="910" width="90" height="60" as="geometry" />
        </mxCell>
        <mxCell id="4PpVHU8LoZDL8oL6UYyr-74" value="Edit Show" style="rounded=1;whiteSpace=wrap;html=1;sketch=0;fontColor=#143642;strokeColor=#0F8B8D;fillColor=#FAE5C7;" parent="1" vertex="1">
          <mxGeometry x="313.21000000000004" y="830" width="83.59" height="30" as="geometry" />
        </mxCell>
        <mxCell id="4PpVHU8LoZDL8oL6UYyr-79" value="Yes" style="text;html=1;align=center;verticalAlign=middle;resizable=0;points=[];autosize=1;strokeColor=none;fillColor=none;fontColor=#143642;" parent="1" vertex="1">
          <mxGeometry x="347.5" y="880" width="40" height="20" as="geometry" />
        </mxCell>
        <mxCell id="rfM77Tdvx1oLTNoh5SR2-35" style="edgeStyle=orthogonalEdgeStyle;shape=connector;curved=0;rounded=1;sketch=0;orthogonalLoop=1;jettySize=auto;html=1;entryX=0;entryY=0.5;entryDx=0;entryDy=0;labelBackgroundColor=default;fontFamily=Helvetica;fontSize=12;fontColor=#143642;endArrow=classic;strokeColor=#A8201A;fillColor=#FAE5C7;" edge="1" parent="1" source="4PpVHU8LoZDL8oL6UYyr-90" target="4PpVHU8LoZDL8oL6UYyr-91">
          <mxGeometry relative="1" as="geometry">
            <Array as="points">
              <mxPoint x="380" y="759" />
              <mxPoint x="380" y="692" />
            </Array>
          </mxGeometry>
        </mxCell>
        <mxCell id="4PpVHU8LoZDL8oL6UYyr-90" value="Collected Car Spaces" style="rounded=1;whiteSpace=wrap;html=1;sketch=0;fontColor=#143642;strokeColor=#0F8B8D;fillColor=#FAE5C7;" parent="1" vertex="1">
          <mxGeometry x="120.00000000000001" y="744" width="80" height="30" as="geometry" />
        </mxCell>
        <mxCell id="rfM77Tdvx1oLTNoh5SR2-9" value="" style="edgeStyle=orthogonalEdgeStyle;shape=connector;curved=0;rounded=1;sketch=0;orthogonalLoop=1;jettySize=auto;html=1;labelBackgroundColor=default;fontFamily=Helvetica;fontSize=11;fontColor=#143642;endArrow=classic;strokeColor=#A8201A;fillColor=#FAE5C7;exitX=0.5;exitY=1;exitDx=0;exitDy=0;entryX=0.5;entryY=0;entryDx=0;entryDy=0;" edge="1" parent="1" source="4PpVHU8LoZDL8oL6UYyr-91" target="rfM77Tdvx1oLTNoh5SR2-8">
          <mxGeometry relative="1" as="geometry">
            <mxPoint x="527.12" y="724" as="sourcePoint" />
            <mxPoint x="527.12" y="772" as="targetPoint" />
          </mxGeometry>
        </mxCell>
        <mxCell id="4PpVHU8LoZDL8oL6UYyr-91" value="Logged" style="rhombus;whiteSpace=wrap;html=1;rounded=0;sketch=0;fontColor=#143642;strokeColor=#0F8B8D;fillColor=#FAE5C7;" parent="1" vertex="1">
          <mxGeometry x="414" y="652" width="80" height="80" as="geometry" />
        </mxCell>
        <mxCell id="4PpVHU8LoZDL8oL6UYyr-95" value="Booked Car Spaces" style="rounded=1;whiteSpace=wrap;html=1;sketch=0;fontColor=#143642;strokeColor=#0F8B8D;fillColor=#FAE5C7;" parent="1" vertex="1">
          <mxGeometry x="116.41000000000001" y="554" width="80" height="30" as="geometry" />
        </mxCell>
        <mxCell id="4PpVHU8LoZDL8oL6UYyr-101" style="edgeStyle=orthogonalEdgeStyle;curved=0;rounded=1;sketch=0;orthogonalLoop=1;jettySize=auto;html=1;entryX=0;entryY=0.5;entryDx=0;entryDy=0;fontColor=#143642;strokeColor=#A8201A;fillColor=#FAE5C7;" parent="1" source="4PpVHU8LoZDL8oL6UYyr-96" target="4PpVHU8LoZDL8oL6UYyr-91" edge="1">
          <mxGeometry relative="1" as="geometry" />
        </mxCell>
        <mxCell id="4PpVHU8LoZDL8oL6UYyr-96" value="Key Word" style="rounded=1;whiteSpace=wrap;html=1;sketch=0;fontColor=#143642;strokeColor=#0F8B8D;fillColor=#FAE5C7;" parent="1" vertex="1">
          <mxGeometry x="270" y="635" width="80" height="30" as="geometry" />
        </mxCell>
        <mxCell id="4PpVHU8LoZDL8oL6UYyr-103" style="edgeStyle=orthogonalEdgeStyle;curved=0;rounded=1;sketch=0;orthogonalLoop=1;jettySize=auto;html=1;entryX=0;entryY=0.5;entryDx=0;entryDy=0;fontColor=#143642;strokeColor=#A8201A;fillColor=#FAE5C7;" parent="1" source="4PpVHU8LoZDL8oL6UYyr-98" target="4PpVHU8LoZDL8oL6UYyr-91" edge="1">
          <mxGeometry relative="1" as="geometry" />
        </mxCell>
        <mxCell id="4PpVHU8LoZDL8oL6UYyr-98" value="Filter" style="rounded=1;whiteSpace=wrap;html=1;sketch=0;fontColor=#143642;strokeColor=#0F8B8D;fillColor=#FAE5C7;" parent="1" vertex="1">
          <mxGeometry x="270" y="676" width="80" height="30" as="geometry" />
        </mxCell>
        <mxCell id="rfM77Tdvx1oLTNoh5SR2-72" style="edgeStyle=orthogonalEdgeStyle;shape=connector;curved=0;rounded=1;sketch=0;orthogonalLoop=1;jettySize=auto;html=1;entryX=1;entryY=0.5;entryDx=0;entryDy=0;labelBackgroundColor=default;fontFamily=Helvetica;fontSize=12;fontColor=#143642;endArrow=classic;strokeColor=#A8201A;fillColor=#FAE5C7;" edge="1" parent="1" source="4PpVHU8LoZDL8oL6UYyr-110" target="rfM77Tdvx1oLTNoh5SR2-71">
          <mxGeometry relative="1" as="geometry" />
        </mxCell>
        <mxCell id="4PpVHU8LoZDL8oL6UYyr-110" value="Payment&amp;nbsp;" style="rounded=1;whiteSpace=wrap;html=1;sketch=0;fontColor=#143642;strokeColor=#0F8B8D;fillColor=#FAE5C7;" parent="1" vertex="1">
          <mxGeometry x="406.75" y="1037.5" width="94.5" height="47" as="geometry" />
        </mxCell>
        <mxCell id="rfM77Tdvx1oLTNoh5SR2-20" style="edgeStyle=orthogonalEdgeStyle;shape=connector;curved=0;rounded=1;sketch=0;orthogonalLoop=1;jettySize=auto;html=1;labelBackgroundColor=default;fontFamily=Helvetica;fontSize=12;fontColor=#143642;endArrow=classic;strokeColor=#A8201A;fillColor=#FAE5C7;entryX=1;entryY=0.5;entryDx=0;entryDy=0;exitX=1;exitY=0.5;exitDx=0;exitDy=0;" edge="1" parent="1" source="rfM77Tdvx1oLTNoh5SR2-21" target="4PpVHU8LoZDL8oL6UYyr-21">
          <mxGeometry relative="1" as="geometry">
            <mxPoint x="840" y="550" as="targetPoint" />
            <mxPoint x="638.1199999999999" y="857" as="sourcePoint" />
            <Array as="points">
              <mxPoint x="623" y="870" />
              <mxPoint x="800" y="870" />
              <mxPoint x="800" y="200" />
            </Array>
          </mxGeometry>
        </mxCell>
        <mxCell id="rfM77Tdvx1oLTNoh5SR2-1" value="yes" style="text;html=1;align=center;verticalAlign=middle;resizable=0;points=[];autosize=1;strokeColor=none;fillColor=none;" vertex="1" parent="1">
          <mxGeometry x="105" y="370" width="30" height="20" as="geometry" />
        </mxCell>
        <mxCell id="rfM77Tdvx1oLTNoh5SR2-7" value="No" style="text;html=1;align=center;verticalAlign=middle;resizable=0;points=[];autosize=1;strokeColor=none;fillColor=none;fontSize=11;fontFamily=Helvetica;fontColor=#143642;" vertex="1" parent="1">
          <mxGeometry x="52.82" y="508" width="30" height="20" as="geometry" />
        </mxCell>
        <mxCell id="rfM77Tdvx1oLTNoh5SR2-12" style="edgeStyle=orthogonalEdgeStyle;shape=connector;curved=0;rounded=1;sketch=0;orthogonalLoop=1;jettySize=auto;html=1;exitX=0.5;exitY=1;exitDx=0;exitDy=0;labelBackgroundColor=default;fontFamily=Helvetica;fontSize=11;fontColor=#143642;endArrow=classic;strokeColor=#A8201A;fillColor=#FAE5C7;" edge="1" parent="1" source="rfM77Tdvx1oLTNoh5SR2-8" target="4PpVHU8LoZDL8oL6UYyr-110">
          <mxGeometry relative="1" as="geometry" />
        </mxCell>
        <mxCell id="rfM77Tdvx1oLTNoh5SR2-8" value="Booking&amp;nbsp;" style="rhombus;whiteSpace=wrap;html=1;rounded=0;sketch=0;fontColor=#143642;strokeColor=#0F8B8D;fillColor=#FAE5C7;" vertex="1" parent="1">
          <mxGeometry x="414" y="805" width="80" height="80" as="geometry" />
        </mxCell>
        <mxCell id="rfM77Tdvx1oLTNoh5SR2-10" value="Yes" style="text;html=1;align=center;verticalAlign=middle;resizable=0;points=[];autosize=1;strokeColor=none;fillColor=none;fontSize=11;fontFamily=Helvetica;fontColor=#143642;" vertex="1" parent="1">
          <mxGeometry x="450" y="740" width="40" height="20" as="geometry" />
        </mxCell>
        <mxCell id="rfM77Tdvx1oLTNoh5SR2-15" style="edgeStyle=orthogonalEdgeStyle;shape=connector;curved=0;rounded=1;sketch=0;orthogonalLoop=1;jettySize=auto;html=1;entryX=0;entryY=0.5;entryDx=0;entryDy=0;labelBackgroundColor=default;fontFamily=Helvetica;fontSize=11;fontColor=#143642;endArrow=classic;strokeColor=#A8201A;fillColor=#FAE5C7;exitX=0;exitY=0.5;exitDx=0;exitDy=0;" edge="1" parent="1" source="rfM77Tdvx1oLTNoh5SR2-19" target="4PpVHU8LoZDL8oL6UYyr-21">
          <mxGeometry relative="1" as="geometry">
            <mxPoint x="-250.0050000000001" y="572" as="sourcePoint" />
            <Array as="points">
              <mxPoint x="-250" y="200" />
            </Array>
          </mxGeometry>
        </mxCell>
        <mxCell id="rfM77Tdvx1oLTNoh5SR2-16" value="Yes" style="text;html=1;align=center;verticalAlign=middle;resizable=0;points=[];autosize=1;strokeColor=none;fillColor=none;fontSize=11;fontFamily=Helvetica;fontColor=#143642;" vertex="1" parent="1">
          <mxGeometry x="-260" y="450" width="40" height="20" as="geometry" />
        </mxCell>
        <mxCell id="rfM77Tdvx1oLTNoh5SR2-19" value="Logout" style="rhombus;whiteSpace=wrap;html=1;rounded=0;sketch=0;fontFamily=Helvetica;fontSize=12;fontColor=#143642;strokeColor=#0F8B8D;fillColor=#FAE5C7;direction=south;" vertex="1" parent="1">
          <mxGeometry x="-290" y="580" width="80" height="85" as="geometry" />
        </mxCell>
        <mxCell id="rfM77Tdvx1oLTNoh5SR2-21" value="Logout" style="rhombus;whiteSpace=wrap;html=1;rounded=0;sketch=0;fontFamily=Helvetica;fontSize=12;fontColor=#143642;strokeColor=#0F8B8D;fillColor=#FAE5C7;" vertex="1" parent="1">
          <mxGeometry x="543.12" y="830" width="80" height="80" as="geometry" />
        </mxCell>
        <mxCell id="rfM77Tdvx1oLTNoh5SR2-23" value="Yes" style="text;html=1;align=center;verticalAlign=middle;resizable=0;points=[];autosize=1;strokeColor=none;fillColor=none;fontSize=12;fontFamily=Helvetica;fontColor=#143642;" vertex="1" parent="1">
          <mxGeometry x="690" y="850" width="40" height="20" as="geometry" />
        </mxCell>
        <mxCell id="rfM77Tdvx1oLTNoh5SR2-36" style="edgeStyle=orthogonalEdgeStyle;shape=connector;curved=0;rounded=1;sketch=0;orthogonalLoop=1;jettySize=auto;html=1;entryX=0;entryY=0.5;entryDx=0;entryDy=0;labelBackgroundColor=default;fontFamily=Helvetica;fontSize=12;fontColor=#143642;endArrow=classic;strokeColor=#A8201A;fillColor=#FAE5C7;" edge="1" parent="1" source="rfM77Tdvx1oLTNoh5SR2-29" target="4PpVHU8LoZDL8oL6UYyr-91">
          <mxGeometry relative="1" as="geometry">
            <Array as="points">
              <mxPoint x="380" y="729" />
              <mxPoint x="380" y="692" />
            </Array>
          </mxGeometry>
        </mxCell>
        <mxCell id="rfM77Tdvx1oLTNoh5SR2-29" value="Sort" style="rounded=1;whiteSpace=wrap;html=1;sketch=0;fontColor=#143642;strokeColor=#0F8B8D;fillColor=#FAE5C7;" vertex="1" parent="1">
          <mxGeometry x="270" y="714" width="80" height="30" as="geometry" />
        </mxCell>
        <mxCell id="rfM77Tdvx1oLTNoh5SR2-37" value="Current Booking" style="rounded=1;whiteSpace=wrap;html=1;sketch=0;fontColor=#143642;strokeColor=#0F8B8D;fillColor=#FAE5C7;" vertex="1" parent="1">
          <mxGeometry x="120" y="1105" width="90" height="30" as="geometry" />
        </mxCell>
        <mxCell id="rfM77Tdvx1oLTNoh5SR2-96" style="edgeStyle=orthogonalEdgeStyle;shape=connector;curved=0;rounded=1;sketch=0;orthogonalLoop=1;jettySize=auto;html=1;entryX=0;entryY=0.5;entryDx=0;entryDy=0;labelBackgroundColor=default;fontFamily=Helvetica;fontSize=12;fontColor=#143642;endArrow=classic;strokeColor=#A8201A;fillColor=#FAE5C7;" edge="1" parent="1" source="rfM77Tdvx1oLTNoh5SR2-41" target="4PpVHU8LoZDL8oL6UYyr-73">
          <mxGeometry relative="1" as="geometry" />
        </mxCell>
        <mxCell id="rfM77Tdvx1oLTNoh5SR2-41" value="Delete Car Space" style="rounded=1;whiteSpace=wrap;html=1;sketch=0;fontColor=#143642;strokeColor=#0F8B8D;fillColor=#FAE5C7;" vertex="1" parent="1">
          <mxGeometry x="122.72000000000001" y="840" width="80" height="30" as="geometry" />
        </mxCell>
        <mxCell id="rfM77Tdvx1oLTNoh5SR2-97" style="edgeStyle=orthogonalEdgeStyle;shape=connector;curved=0;rounded=1;sketch=0;orthogonalLoop=1;jettySize=auto;html=1;entryX=0;entryY=0.5;entryDx=0;entryDy=0;labelBackgroundColor=default;fontFamily=Helvetica;fontSize=12;fontColor=#143642;endArrow=classic;strokeColor=#A8201A;fillColor=#FAE5C7;" edge="1" parent="1" source="rfM77Tdvx1oLTNoh5SR2-42" target="4PpVHU8LoZDL8oL6UYyr-73">
          <mxGeometry relative="1" as="geometry" />
        </mxCell>
        <mxCell id="rfM77Tdvx1oLTNoh5SR2-42" value="Unpublish Car Space" style="rounded=1;whiteSpace=wrap;html=1;sketch=0;fontColor=#143642;strokeColor=#0F8B8D;fillColor=#FAE5C7;" vertex="1" parent="1">
          <mxGeometry x="122.72000000000001" y="800" width="80" height="30" as="geometry" />
        </mxCell>
        <mxCell id="rfM77Tdvx1oLTNoh5SR2-56" style="edgeStyle=orthogonalEdgeStyle;shape=connector;curved=0;rounded=1;sketch=0;orthogonalLoop=1;jettySize=auto;html=1;entryX=0;entryY=0.5;entryDx=0;entryDy=0;labelBackgroundColor=default;fontFamily=Helvetica;fontSize=12;fontColor=#143642;endArrow=classic;strokeColor=#A8201A;fillColor=#FAE5C7;" edge="1" parent="1" source="rfM77Tdvx1oLTNoh5SR2-52" target="rfM77Tdvx1oLTNoh5SR2-53">
          <mxGeometry relative="1" as="geometry" />
        </mxCell>
        <mxCell id="rfM77Tdvx1oLTNoh5SR2-57" style="edgeStyle=orthogonalEdgeStyle;shape=connector;curved=0;rounded=1;sketch=0;orthogonalLoop=1;jettySize=auto;html=1;entryX=0;entryY=0.5;entryDx=0;entryDy=0;labelBackgroundColor=default;fontFamily=Helvetica;fontSize=12;fontColor=#143642;endArrow=classic;strokeColor=#A8201A;fillColor=#FAE5C7;" edge="1" parent="1" source="rfM77Tdvx1oLTNoh5SR2-52" target="rfM77Tdvx1oLTNoh5SR2-54">
          <mxGeometry relative="1" as="geometry" />
        </mxCell>
        <mxCell id="rfM77Tdvx1oLTNoh5SR2-58" style="edgeStyle=orthogonalEdgeStyle;shape=connector;curved=0;rounded=1;sketch=0;orthogonalLoop=1;jettySize=auto;html=1;entryX=0;entryY=0.5;entryDx=0;entryDy=0;labelBackgroundColor=default;fontFamily=Helvetica;fontSize=12;fontColor=#143642;endArrow=classic;strokeColor=#A8201A;fillColor=#FAE5C7;" edge="1" parent="1" source="rfM77Tdvx1oLTNoh5SR2-52" target="rfM77Tdvx1oLTNoh5SR2-55">
          <mxGeometry relative="1" as="geometry" />
        </mxCell>
        <mxCell id="rfM77Tdvx1oLTNoh5SR2-52" value="Renting requests Page" style="rounded=1;whiteSpace=wrap;html=1;sketch=0;fontColor=#143642;strokeColor=#0F8B8D;fillColor=#FAE5C7;" vertex="1" parent="1">
          <mxGeometry x="-65.77" y="1210" width="127.18" height="48" as="geometry" />
        </mxCell>
        <mxCell id="rfM77Tdvx1oLTNoh5SR2-53" value="Add new request" style="rounded=1;whiteSpace=wrap;html=1;sketch=0;fontColor=#143642;strokeColor=#0F8B8D;fillColor=#FAE5C7;" vertex="1" parent="1">
          <mxGeometry x="120" y="1200" width="90" height="30" as="geometry" />
        </mxCell>
        <mxCell id="rfM77Tdvx1oLTNoh5SR2-54" value="Delete my request" style="rounded=1;whiteSpace=wrap;html=1;sketch=0;fontColor=#143642;strokeColor=#0F8B8D;fillColor=#FAE5C7;" vertex="1" parent="1">
          <mxGeometry x="120" y="1258" width="90" height="30" as="geometry" />
        </mxCell>
        <mxCell id="rfM77Tdvx1oLTNoh5SR2-60" value="" style="edgeStyle=orthogonalEdgeStyle;shape=connector;curved=0;rounded=1;sketch=0;orthogonalLoop=1;jettySize=auto;html=1;labelBackgroundColor=default;fontFamily=Helvetica;fontSize=12;fontColor=#143642;endArrow=classic;strokeColor=#A8201A;fillColor=#FAE5C7;entryX=0.5;entryY=1;entryDx=0;entryDy=0;exitX=1;exitY=0.5;exitDx=0;exitDy=0;" edge="1" parent="1" source="rfM77Tdvx1oLTNoh5SR2-55" target="rfM77Tdvx1oLTNoh5SR2-61">
          <mxGeometry relative="1" as="geometry">
            <mxPoint x="290" y="1270" as="targetPoint" />
            <Array as="points">
              <mxPoint x="454" y="1325" />
            </Array>
          </mxGeometry>
        </mxCell>
        <mxCell id="rfM77Tdvx1oLTNoh5SR2-55" value="Check requests" style="rounded=1;whiteSpace=wrap;html=1;sketch=0;fontColor=#143642;strokeColor=#0F8B8D;fillColor=#FAE5C7;" vertex="1" parent="1">
          <mxGeometry x="120" y="1310" width="90" height="30" as="geometry" />
        </mxCell>
        <mxCell id="rfM77Tdvx1oLTNoh5SR2-62" style="edgeStyle=orthogonalEdgeStyle;shape=connector;curved=0;rounded=1;sketch=0;orthogonalLoop=1;jettySize=auto;html=1;entryX=0.5;entryY=1;entryDx=0;entryDy=0;labelBackgroundColor=default;fontFamily=Helvetica;fontSize=12;fontColor=#143642;endArrow=classic;strokeColor=#A8201A;fillColor=#FAE5C7;" edge="1" parent="1" source="rfM77Tdvx1oLTNoh5SR2-61" target="4PpVHU8LoZDL8oL6UYyr-110">
          <mxGeometry relative="1" as="geometry" />
        </mxCell>
        <mxCell id="rfM77Tdvx1oLTNoh5SR2-61" value="Accept&amp;nbsp;" style="rhombus;whiteSpace=wrap;html=1;rounded=0;sketch=0;fontColor=#143642;strokeColor=#0F8B8D;fillColor=#FAE5C7;" vertex="1" parent="1">
          <mxGeometry x="409" y="1186.5" width="90" height="80" as="geometry" />
        </mxCell>
        <mxCell id="rfM77Tdvx1oLTNoh5SR2-73" style="edgeStyle=orthogonalEdgeStyle;shape=connector;curved=0;rounded=1;sketch=0;orthogonalLoop=1;jettySize=auto;html=1;exitX=0;exitY=0.5;exitDx=0;exitDy=0;entryX=1;entryY=0.5;entryDx=0;entryDy=0;labelBackgroundColor=default;fontFamily=Helvetica;fontSize=12;fontColor=#143642;endArrow=classic;strokeColor=#A8201A;fillColor=#FAE5C7;" edge="1" parent="1" source="rfM77Tdvx1oLTNoh5SR2-71" target="4PpVHU8LoZDL8oL6UYyr-72">
          <mxGeometry relative="1" as="geometry" />
        </mxCell>
        <mxCell id="rfM77Tdvx1oLTNoh5SR2-83" style="edgeStyle=orthogonalEdgeStyle;shape=connector;curved=0;rounded=1;sketch=0;orthogonalLoop=1;jettySize=auto;html=1;entryX=0.5;entryY=0;entryDx=0;entryDy=0;labelBackgroundColor=default;fontFamily=Helvetica;fontSize=12;fontColor=#143642;endArrow=classic;strokeColor=#A8201A;fillColor=#FAE5C7;" edge="1" parent="1" source="rfM77Tdvx1oLTNoh5SR2-71" target="rfM77Tdvx1oLTNoh5SR2-82">
          <mxGeometry relative="1" as="geometry" />
        </mxCell>
        <mxCell id="rfM77Tdvx1oLTNoh5SR2-71" value="Finished" style="rhombus;whiteSpace=wrap;html=1;rounded=0;sketch=0;fontFamily=Helvetica;fontSize=12;fontColor=#143642;strokeColor=#0F8B8D;fillColor=#FAE5C7;" vertex="1" parent="1">
          <mxGeometry x="320" y="1040" width="67.5" height="40.5" as="geometry" />
        </mxCell>
        <mxCell id="rfM77Tdvx1oLTNoh5SR2-74" value="Yes" style="text;html=1;align=center;verticalAlign=middle;resizable=0;points=[];autosize=1;strokeColor=none;fillColor=none;fontSize=12;fontFamily=Helvetica;fontColor=#143642;" vertex="1" parent="1">
          <mxGeometry x="273.21" y="1044" width="40" height="20" as="geometry" />
        </mxCell>
        <mxCell id="rfM77Tdvx1oLTNoh5SR2-89" value="" style="edgeStyle=orthogonalEdgeStyle;shape=connector;curved=0;rounded=1;sketch=0;orthogonalLoop=1;jettySize=auto;html=1;labelBackgroundColor=default;fontFamily=Helvetica;fontSize=12;fontColor=#143642;endArrow=classic;strokeColor=#A8201A;fillColor=#FAE5C7;entryX=0.5;entryY=0;entryDx=0;entryDy=0;" edge="1" parent="1" source="rfM77Tdvx1oLTNoh5SR2-82" target="rfM77Tdvx1oLTNoh5SR2-90">
          <mxGeometry relative="1" as="geometry">
            <mxPoint x="361.8000000000002" y="1221.5" as="targetPoint" />
          </mxGeometry>
        </mxCell>
        <mxCell id="rfM77Tdvx1oLTNoh5SR2-82" value="Booking&lt;br&gt;Completed" style="rhombus;whiteSpace=wrap;html=1;rounded=0;sketch=0;fontFamily=Helvetica;fontSize=12;fontColor=#143642;strokeColor=#0F8B8D;fillColor=#FAE5C7;" vertex="1" parent="1">
          <mxGeometry x="308.75" y="1116.5" width="90" height="70" as="geometry" />
        </mxCell>
        <mxCell id="rfM77Tdvx1oLTNoh5SR2-90" value="Review" style="rounded=1;whiteSpace=wrap;html=1;sketch=0;fontColor=#143642;strokeColor=#0F8B8D;fillColor=#FAE5C7;" vertex="1" parent="1">
          <mxGeometry x="311.41" y="1250" width="87.18" height="30.5" as="geometry" />
        </mxCell>
        <mxCell id="rfM77Tdvx1oLTNoh5SR2-101" value="Yes" style="text;html=1;align=center;verticalAlign=middle;resizable=0;points=[];autosize=1;strokeColor=none;fillColor=none;fontSize=12;fontFamily=Helvetica;fontColor=#143642;" vertex="1" parent="1">
          <mxGeometry x="454" y="1141.5" width="40" height="20" as="geometry" />
        </mxCell>
        <mxCell id="rfM77Tdvx1oLTNoh5SR2-102" value="Yes" style="text;html=1;align=center;verticalAlign=middle;resizable=0;points=[];autosize=1;strokeColor=none;fillColor=none;fontSize=12;fontFamily=Helvetica;fontColor=#143642;" vertex="1" parent="1">
          <mxGeometry x="347.5" y="1200" width="40" height="20" as="geometry" />
        </mxCell>
      </root>
    </mxGraphModel>
  </diagram>
</mxfile>
